<?xml version="1.0" encoding="utf-8"?>
<!-- Generator: Adobe Illustrator 25.0.0, SVG Export Plug-In . SVG Version: 6.00 Build 0)  -->
<svg version="1.1" id="Layer_1" xmlns="http://www.w3.org/2000/svg" xmlns:xlink="http://www.w3.org/1999/xlink" x="0px" y="0px"
	 viewBox="0 0 64 64" style="enable-background:new 0 0 64 64;" xml:space="preserve">
<style type="text/css">
	.st0{fill:#FFFFFF;}
</style>
<path class="st0" d="M10.4,43.2c0.1-2.6-0.2-5.2,0.2-7.8c5.3,3.9,11.5,2,14.5-1.7c2.8-3.5,3.7-10.5-2-14.9c2.5-1.2,5.1-1.8,7.9-1.9
	c0-0.3,0-0.7,0-1c-1.4-0.4-2.5-1.2-3.2-2.5c-0.5-1-0.6-2.1-0.4-3.2c0.5-2.2,2.5-3.7,4.8-3.6c2.2,0.1,4.1,1.8,4.4,4.1
	c0.2,1.9-0.7,4.4-3.7,5.1c0,0.3,0,0.6,0,0.9c1.4,0.2,2.7,0.4,4,0.7c8.2,1.8,14.8,8.9,16.2,17.2c0.5,2.8,0.3,5.6,0.3,8.4
	c0,0.1,0,0.1,0,0.2C39.1,43.2,24.8,43.2,10.4,43.2z M34.8,11.3c0-1.5-1.3-2.8-2.8-2.8c-1.6,0-2.8,1.3-2.8,2.8c0,1.5,1.3,2.8,2.8,2.8
	C33.5,14.2,34.8,12.9,34.8,11.3z"/>
<path class="st0" d="M31.9,53.5c-6.8,0-13.7,0-20.5,0c-2.2,0-3.8-1.6-3.8-3.8c0-1.1,0-2.2,0.7-3.1c0.8-1,1.7-1.5,3-1.5
	c13.8,0,27.6,0,41.4,0c2,0,3.7,1.7,3.7,3.6c0,0.6,0,1.3-0.1,1.9c-0.4,1.8-1.9,2.9-3.6,2.9C45.7,53.5,38.8,53.5,31.9,53.5z"/>
<path class="st0" d="M25.4,27.3c0,4.7-3.8,8.4-8.5,8.4c-4.7,0-8.4-3.8-8.4-8.5c0-4.6,3.8-8.4,8.5-8.4C21.6,18.9,25.4,22.7,25.4,27.3
	z M17.9,26.3c0-1.3,0-2.5,0-3.6c0-0.6-0.4-1-0.9-1c-0.6,0-0.9,0.4-0.9,1.1c0,1.5,0,3,0,4.4c0,0.7,0.4,1,1,1c0.9,0,1.7,0,2.6,0
	c0.6,0,1-0.4,1.1-0.9c0-0.6-0.4-0.9-1-0.9C19.1,26.3,18.5,26.3,17.9,26.3z"/>
<path class="st0" d="M32,55.4c7.3,0,14.7,0,22,0c0.2,0,0.4,0,0.6,0c0.5,0.1,0.8,0.4,0.8,0.9c0,0.5-0.3,0.8-0.8,0.9
	c-0.2,0-0.4,0-0.5,0c-14.7,0-29.4,0-44.1,0c-0.2,0-0.4,0-0.5,0c-0.5-0.1-0.8-0.4-0.8-0.9c0-0.5,0.3-0.8,0.8-0.9c0.2,0,0.4,0,0.6,0
	C17.3,55.4,24.6,55.4,32,55.4z"/>
</svg>
