<?xml version="1.0" encoding="utf-8"?>
<!-- Generator: Adobe Illustrator 25.0.0, SVG Export Plug-In . SVG Version: 6.00 Build 0)  -->
<svg version="1.1" id="Layer_1" xmlns="http://www.w3.org/2000/svg" xmlns:xlink="http://www.w3.org/1999/xlink" x="0px" y="0px"
	 viewBox="0 0 64 64" style="enable-background:new 0 0 64 64;" xml:space="preserve">
<style type="text/css">
	.st0{fill:#FFFFFF;}
</style>
<path class="st0" d="M61,11.4c-0.2,1.2-0.5,2.4-0.7,3.6c-1.2,6.8-2.4,13.7-3.6,20.5c-0.6,3.6-1.3,7.3-1.9,10.9
	c0,0.2-0.1,0.3-0.1,0.5c-13.7,0-27.3,0-41,0c-2-12-4-23.9-6-35.9c-2.2,0-4.4,0-6.6,0c0-2,0-4,0-6C5,5,8.9,5,12.8,5
	c0.2,1.6,0.5,3.2,0.7,4.7c0.2,1.2,0.2,1.2,1.4,1.2c15.1,0,30.2,0,45.3,0c0.3,0,0.5,0,0.8,0C61,11.1,61,11.2,61,11.4z M53.8,17
	c-13.1,0-26.1,0-39.2,0c1.4,8,2.8,16,4.2,23.9c10.3,0,20.6,0,30.8,0C51,32.9,52.4,25,53.8,17z"/>
<path class="st0" d="M20.7,49.9c2.5,0,4.5,2.1,4.4,4.6C25,57,23,58.9,20.5,58.9c-2.5-0.1-4.4-2.1-4.4-4.6
	C16.1,51.8,18.2,49.9,20.7,49.9z"/>
<path class="st0" d="M47.6,49.9c2.5,0,4.5,2,4.5,4.5c0,2.5-2,4.4-4.5,4.4c-2.5,0-4.5-2-4.5-4.5C43,51.9,45.1,49.9,47.6,49.9z"/>
<path class="st0" d="M43,33.4c-1.4,1.4-2.8,2.8-4.2,4.2c-1.6-1.5-3.1-2.9-4.7-4.4c-1.6,1.6-3.2,3.2-4.7,4.7
	c-1.4-1.4-2.8-2.8-4.2-4.2c1.5-1.5,3.1-3.1,4.7-4.7c-1.6-1.5-3.2-3-4.7-4.4c1.4-1.4,2.8-2.8,4.2-4.2c1.5,1.4,3.1,2.9,4.7,4.4
	c1.6-1.6,3.2-3.2,4.7-4.7c1.4,1.4,2.8,2.8,4.2,4.2c-1.5,1.5-3.1,3.1-4.7,4.7C39.8,30.4,41.4,31.9,43,33.4z"/>
</svg>
