<?xml version="1.0" encoding="utf-8"?>
<!-- Generator: Adobe Illustrator 25.0.0, SVG Export Plug-In . SVG Version: 6.00 Build 0)  -->
<svg version="1.1" id="Layer_1" xmlns="http://www.w3.org/2000/svg" xmlns:xlink="http://www.w3.org/1999/xlink" x="0px" y="0px"
	 viewBox="0 0 64 64" style="enable-background:new 0 0 64 64;" xml:space="preserve">
<style type="text/css">
	.st0{fill:#FFFFFF;}
</style>
<path class="st0" d="M2.3,8.3c0.7-1.6,1.2-2,3-2c1.8,0,3.6,0,5.4,0c3.3,0,6,2,6.9,5.3c2.7,9.4,5.4,18.9,8.1,28.3
	c0.9,3.1,3.3,4.9,6.6,4.9c4.3,0,8.6,0,13,0c3.7,0,6.7-2.9,6.7-6.6c0-3.1,0-6.3,0-9.4c0-3.7-3-6.6-6.7-6.6c-4.3,0-8.5,0-12.8,0
	c-0.4,0-0.8,0-1.2-0.1c-1.2-0.3-1.9-1.4-1.8-2.7c0.1-1.2,0.9-2.2,2.1-2.3c0.3,0,0.5,0,0.8,0c4.1,0,8.3,0,12.4,0
	c5.9,0,10.5,3.7,11.7,9.4c0.2,0.8,0.3,1.7,0.3,2.6c0,3.1,0,6.3,0,9.4c0,6.4-5.2,11.7-11.6,11.8c-4.4,0.1-8.9,0.1-13.3,0
	c-5.2-0.1-9.7-3.6-11-8.6c-1.5-5.7-3-11.3-4.6-17c-1.1-3.9-2.3-7.9-3.5-11.8c-0.3-0.9-1-1.4-2-1.4c-1.8,0-3.6,0-5.4,0
	c-1.5,0.1-2.6-0.4-3.1-2C2.3,9.1,2.3,8.7,2.3,8.3z"/>
<path class="st0" d="M51,59.9c-0.5,0-0.9,0-1.4,0c-1.3-0.1-2.1-1.1-2.2-2.4c-0.1-1.3,0.7-2.5,1.9-2.6c1.1-0.1,2.2-0.1,3.3,0
	c1.2,0.1,2,1.2,1.9,2.6c-0.1,1.3-0.9,2.3-2.1,2.4C52,59.9,51.5,59.8,51,59.9C51,59.8,51,59.9,51,59.9z"/>
<path class="st0" d="M28.1,59.9c-0.5,0-0.9,0-1.4,0c-1.3-0.1-2.1-1.1-2.2-2.4c-0.1-1.3,0.7-2.5,1.9-2.6c1.1-0.1,2.2-0.1,3.3,0
	c1.2,0.1,2,1.3,1.9,2.6c0,1.3-0.9,2.3-2.1,2.4C29,59.9,28.6,59.8,28.1,59.9C28.1,59.8,28.1,59.9,28.1,59.9z"/>
</svg>
