<?xml version="1.0" encoding="utf-8"?>
<!-- Generator: Adobe Illustrator 25.0.0, SVG Export Plug-In . SVG Version: 6.00 Build 0)  -->
<svg version="1.1" id="Layer_1" xmlns="http://www.w3.org/2000/svg" xmlns:xlink="http://www.w3.org/1999/xlink" x="0px" y="0px"
	 viewBox="0 0 64 64" style="enable-background:new 0 0 64 64;" xml:space="preserve">
<style type="text/css">
	.st0{fill:#FFFFFF;}
</style>
<path class="st0" d="M32,37.5c0.5-0.5,0.9-1,1.3-1.6c1.7-2,3.4-4,5.1-6c2.5-2.9,5-5.9,7.4-8.8c1.4-1.7,3.2-1.7,4.5,0
	c0.6,0.8,0.6,2-0.2,3c-0.9,1.2-1.9,2.4-2.9,3.6c-1.4,1.7-2.8,3.3-4.2,4.9c-2.5,2.9-4.9,5.8-7.3,8.7c-0.5,0.6-1,1.3-1.5,1.9
	c-1.2,1.4-3.1,1.4-4.3,0c-2.5-2.9-5-5.7-7.4-8.6c-2.5-2.9-5-5.8-7.5-8.7c-0.5-0.5-1-1-1.4-1.5c-1-1.2-0.8-3,0.4-4
	c1-0.8,2.6-0.5,3.6,0.6c2.6,3,5.2,5.9,7.7,8.9c2.1,2.4,4.2,4.8,6.3,7.2C31.7,37.2,31.9,37.3,32,37.5z"/>
</svg>
