<?xml version="1.0" encoding="utf-8"?>
<!-- Generator: Adobe Illustrator 25.0.0, SVG Export Plug-In . SVG Version: 6.00 Build 0)  -->
<svg version="1.1" id="Layer_1" xmlns="http://www.w3.org/2000/svg" xmlns:xlink="http://www.w3.org/1999/xlink" x="0px" y="0px"
	 viewBox="0 0 64 64" style="enable-background:new 0 0 64 64;" xml:space="preserve">
<style type="text/css">
	.st0{fill:#FFFFFF;}
</style>
<path class="st0" d="M52.3,40.9c2.7,0.4,4.6,1.8,5.5,4.4c1.4,4-1.6,8.4-5.8,8.4c-12.6,0.1-25.2,0-37.8,0C11,53.7,8.3,51.1,8,48
	c-0.3-3.3,1.9-6.3,5.1-6.9c0.2,0,0.4-0.1,0.7-0.1c0-0.2,0-0.4,0-0.6c0-10,0-19.9,0-29.9c0-1.6,0.8-2.3,2.3-2.1
	c1.3,0.1,2.4,0.6,3.4,1.5c1.2,1,2.4,1.1,3.6,0c2.4-2.1,5.7-2.1,8.1,0c1.2,1,2.4,1,3.6,0c2.3-2.1,5.7-2.1,8,0c1.2,1.1,2.5,1.1,3.7,0
	c1.1-1,2.4-1.5,3.9-1.5c1.1,0,1.8,0.7,1.8,1.8c0,0.2,0,0.3,0,0.5c0,9.9,0,19.8,0,29.6C52.3,40.5,52.3,40.7,52.3,40.9z M17.4,50.2
	c10.4,0,20.9,0,31.3,0c0-12.5,0-25.1,0-37.6c-0.1,0-0.1,0.1-0.2,0.1c-2.3,1.9-5.7,1.8-8-0.3c-1-0.9-2.4-0.9-3.4,0.1
	c-2.4,2.1-5.7,2.2-8.1,0.1c-1.2-1.1-2.4-1.1-3.6,0c-2.2,1.9-5.3,2-7.6,0.3c-0.1-0.1-0.2-0.1-0.4-0.2C17.4,25.2,17.4,37.7,17.4,50.2z
	 M52.3,50.1c1.3-0.1,2.3-1.4,2.3-2.8c0-1.4-1-2.6-2.3-2.8C52.3,46.4,52.3,48.3,52.3,50.1z M13.8,44.6c-1.3,0.1-2.4,1.5-2.3,3
	c0.1,1.3,1.2,2.5,2.3,2.5C13.8,48.3,13.8,46.4,13.8,44.6z"/>
<path class="st0" d="M34.2,43.3c-2.7,0-5.3,0-8,0c-1.1,0-1.9-0.7-1.9-1.7c0-1,0.8-1.8,1.9-1.8c5.4,0,10.7,0,16.1,0
	c0.9,0,1.6,0.5,1.8,1.3c0.2,0.7-0.1,1.5-0.7,1.9c-0.3,0.2-0.8,0.3-1.2,0.3C39.5,43.3,36.8,43.3,34.2,43.3z"/>
<path class="st0" d="M34.3,30.5c2.7,0,5.4,0,8.1,0c0.8,0,1.5,0.5,1.7,1.2c0.2,0.7,0,1.5-0.6,1.9c-0.3,0.2-0.8,0.4-1.2,0.4
	c-5.4,0-10.7,0-16.1,0c-1.1,0-1.9-0.8-1.9-1.8c0-1,0.8-1.7,1.9-1.7C28.9,30.5,31.6,30.5,34.3,30.5z"/>
<path class="st0" d="M29.6,24.6c-1.1,0-2.3,0-3.4,0c-1.1,0-1.9-0.7-1.9-1.7c0-1,0.8-1.8,1.8-1.8c2.3,0,4.5,0,6.8,0
	c1.1,0,1.8,0.8,1.8,1.8c0,1-0.8,1.7-1.9,1.7C31.8,24.6,30.7,24.6,29.6,24.6z"/>
</svg>
