<?xml version="1.0" encoding="utf-8"?>
<!-- Generator: Adobe Illustrator 25.0.0, SVG Export Plug-In . SVG Version: 6.00 Build 0)  -->
<svg version="1.1" id="Layer_1" xmlns="http://www.w3.org/2000/svg" xmlns:xlink="http://www.w3.org/1999/xlink" x="0px" y="0px"
	 viewBox="0 0 64 64" style="enable-background:new 0 0 64 64;" xml:space="preserve">
<style type="text/css">
	.st0{fill:#FFFFFF;}
</style>
<path class="st0" d="M15,60c-0.2-0.1-0.5-0.1-0.7-0.2C10,59,7.1,55.4,7.1,51c0-12.9,0-25.9,0-38.8c0-4.5,2.9-8,7.2-8.9
	c0.6-0.1,1.2-0.2,1.9-0.2c9,0,18,0,27,0c4.3,0,7.8,2.7,8.8,6.9c0.2,0.7,0.2,1.5,0.2,2.2c0,4.4,0,8.7,0,13.1c0,1.3-0.6,2.2-1.7,2.4
	c-1.3,0.3-2.6-0.5-2.7-1.8c0-0.3,0-0.6,0-0.9c0-4.3,0-8.5,0-12.8c0-1.9-0.7-3.4-2.5-4.3c-0.6-0.3-1.4-0.5-2.1-0.5c-9,0-18,0-27,0
	c-2.5,0-4.4,1.7-4.5,4.3c0,0.2,0,0.4,0,0.6c0,12.7,0,25.5,0,38.2c0,2,0.7,3.5,2.5,4.4c0.7,0.3,1.5,0.5,2.2,0.5c2.4,0.1,4.7,0,7.1,0
	c0.9,0,1.6,0.4,2.1,1.3c0.4,0.8,0.3,1.6-0.3,2.3c-0.3,0.4-0.8,0.6-1.2,0.9C20.9,60,18,60,15,60z"/>
<path class="st0" d="M32.9,60c-0.1,0-0.1-0.1-0.2-0.1c-1.2-0.5-1.8-1.6-1.4-2.8c0.9-2.9,1.7-5.8,2.6-8.6c0.1-0.4,0.4-0.8,0.7-1.1
	c4-4,7.9-8,11.9-11.9c1.9-1.9,4.2-2.5,6.8-1.7c2.5,0.8,4.1,2.6,4.5,5.2c0.4,2-0.1,3.9-1.5,5.4c-0.3,0.3-0.6,0.7-0.9,1
	C51.8,49,48,52.8,44.3,56.5c-0.5,0.5-1.1,0.8-1.8,1c-2.9,0.8-5.8,1.6-8.7,2.4C33.5,60,33.2,60,32.9,60z M46.1,41.9
	c-0.1,0.1-0.2,0.4-0.3,0.5c-1.7,1.7-3.4,3.3-5,5c-0.9,0.9-2.1,1.7-2.7,2.8c-0.7,1.1-0.8,2.5-1.2,3.8c0,0.1,0,0.3-0.1,0.4
	c1.4-0.4,2.7-0.7,4-1.1c0.3-0.1,0.6-0.3,0.8-0.5c2.5-2.5,5-4.9,7.4-7.4c0.1-0.1,0.2-0.3,0.3-0.4C48.3,44.1,47.2,43.1,46.1,41.9z
	 M49.5,38.7c1.1,1.1,2.1,2.1,3.1,3.1c1.3-1,1.1-2.6,0.3-3.4C51.9,37.4,50.5,37.6,49.5,38.7z"/>
<path class="st0" d="M29.6,20.9c-3.8,0-7.5,0-11.3,0c-1.5,0-2.5-1.1-2.3-2.5c0.1-1,0.9-1.8,2-1.9c0.1,0,0.2,0,0.3,0
	c7.6,0,15.2,0,22.8,0c1.4,0,2.3,1,2.3,2.3c-0.1,1.2-1,2.1-2.3,2.1c-1.7,0-3.4,0-5.1,0C33.8,20.9,31.7,20.9,29.6,20.9z"/>
<path class="st0" d="M29.6,29.8c-3.8,0-7.5,0-11.3,0c-1.5,0-2.5-1.1-2.3-2.5c0.1-1,0.9-1.8,2-1.9c0.2,0,0.4,0,0.6,0
	c7.4,0,14.7,0,22.1,0c0.3,0,0.5,0,0.8,0c1.1,0.2,1.9,1.2,1.8,2.4c-0.1,1.1-1,2-2.1,2c-1,0-2,0-3,0C35.3,29.8,32.4,29.8,29.6,29.8z"
	/>
<path class="st0" d="M25.1,34.2c2.3,0,4.6,0,6.9,0c1.5,0,2.5,1.2,2.2,2.6c-0.2,1.1-1.1,1.8-2.3,1.8c-2.2,0-4.5,0-6.7,0
	c-2.3,0-4.7,0-7,0c-1.5,0-2.5-1.2-2.2-2.6c0.2-1.1,1.1-1.8,2.3-1.8C20.6,34.2,22.8,34.2,25.1,34.2z"/>
</svg>
