<?xml version="1.0" encoding="utf-8"?>
<!-- Generator: Adobe Illustrator 25.0.0, SVG Export Plug-In . SVG Version: 6.00 Build 0)  -->
<svg version="1.1" id="Layer_1" xmlns="http://www.w3.org/2000/svg" xmlns:xlink="http://www.w3.org/1999/xlink" x="0px" y="0px"
	 viewBox="0 0 64 64" style="enable-background:new 0 0 64 64;" xml:space="preserve">
<style type="text/css">
	.st0{fill:#FFFFFF;}
</style>
<path class="st0" d="M50,38.2c-1-1.2-2.3-1.9-3.8-2.1c0-0.3,0-0.5,0-0.8c0-7.9,0-15.9,0-23.8c0-1.2-0.3-1.5-1.5-1.5
	c-9.7,0-19.4,0-29,0c-1.2,0-1.5,0.3-1.5,1.5c0,11,0,22.1,0,33.1c0,1.2,0.3,1.5,1.5,1.5c2.2,0,4.4,0,6.6,0c0.3,0,0.5,0,0.7,0.4
	c1.4,3.8,2.7,7.6,4.1,11.4c0,0.1,0,0.2,0.1,0.3c-0.2,0-0.4,0-0.6,0c-4.3,0-8.6,0-13,0c-2.1,0-3.3-1.2-3.3-3.3c0-16.5,0-33,0-49.5
	c0-2.1,1.2-3.3,3.3-3.3c11.1,0,22.2,0,33.4,0c2.2,0,3.4,1.2,3.4,3.4c0,10.7,0,21.4,0,32.1c0,0.2,0,0.4,0,0.6
	C50.1,38.1,50.1,38.2,50,38.2z M30.1,8c1,0,2,0,2.9,0c0.7,0,1.2-0.4,1.1-1c0-0.6-0.4-1-1.1-1c-1.9,0-3.8,0-5.7,0
	c-0.7,0-1.1,0.4-1.1,1c0,0.6,0.4,1,1.1,1C28.2,8,29.2,8,30.1,8z"/>
<path class="st0" d="M32.2,44.3c0-0.3,0-0.6,0-0.9c0-3.9,0-7.8,0-11.7c0-1.4,0.6-2.5,1.9-3.1c1.2-0.6,2.4-0.6,3.6,0.2
	c1,0.7,1.6,1.7,1.6,2.9c0,1.6,0,3.2,0,4.8c2.3-0.7,3.9,0,4.8,2.1c2.6-0.7,3.8-0.3,4.9,1.8c0.9,0,1.8-0.2,2.6-0.1
	c1.6,0.3,2.7,1.7,2.7,3.3c0,3.1,0.1,6.1,0,9.2c-0.1,3.2-1.6,5.9-3.5,8.4c-0.7,0.9-1.4,1.2-2.5,1.2c-4.5-0.1-9,0-13.5,0
	c-0.5,0-1.1-0.2-1.5-0.4c-2.3-1.4-4-3.3-4.8-5.9c-1.2-3.7-2.6-7.3-3.9-11c-0.7-2.1,0.5-4.2,2.6-4.6c1-0.2,1.8,0.1,2.6,0.7
	c0.5,0.4,0.9,0.9,1.2,1.4c0.5,0.6,0.8,1.3,1.2,2C32.1,44.3,32.1,44.3,32.2,44.3z"/>
<path class="st0" d="M20.4,27.1c1-3.7,3.3-5.8,7-6.7c-0.5-1.6-0.2-2.9,1.3-3.9c1-0.7,2.4-0.5,3.3,0.2c1.1,0.8,1.4,2,0.9,3.6
	c3.6,0.9,6,3,7,6.9c-0.6-0.2-1.2-0.3-1.6-0.5c-1.8-0.9-3.6-0.9-5.4,0.1c-0.2,0.1-0.5,0.2-0.7,0.2c-3.8,0-7.6,0-11.4,0
	C20.7,27.1,20.6,27.1,20.4,27.1z"/>
<path class="st0" d="M30.8,29.1c-0.9,1.6-0.6,3.3-0.6,5c-0.1,0-0.2,0.1-0.4,0.1c-2.5,0-5.1,0-7.6,0c-2,0-3.6-1.4-4-3.4
	c-0.2-1.1,0.2-1.6,1.3-1.6C23.2,29.1,26.9,29.1,30.8,29.1z"/>
<path class="st0" d="M41.3,32.5c-0.2-1.1-0.4-2.2-0.5-3.3c0.9-0.2,1.5,0.3,1.4,1.3c-0.1,0.7-0.4,1.4-0.7,2.1
	C41.4,32.6,41.4,32.5,41.3,32.5z"/>
</svg>
