<?xml version="1.0" encoding="utf-8"?>
<!-- Generator: Adobe Illustrator 25.0.0, SVG Export Plug-In . SVG Version: 6.00 Build 0)  -->
<svg version="1.1" id="Layer_1" xmlns="http://www.w3.org/2000/svg" xmlns:xlink="http://www.w3.org/1999/xlink" x="0px" y="0px"
	 viewBox="0 0 64 64" style="enable-background:new 0 0 64 64;" xml:space="preserve">
<style type="text/css">
	.st0{fill:#FFFFFF;}
</style>
<path class="st0" d="M52.1,60c-13.4,0-26.8,0-40.2,0c-1-0.4-1.3-1.1-1.3-2.1c0-1.1,0-2.3,0-3.4c0-0.4,0-0.7,0-1.1
	c-1.6,0-3.1,0-4.5,0c-1.4,0-2-0.6-2-2c0-7.1,0-14.3,0-21.4c0-1.5,0.6-2.1,2.1-2.1c3.5,0,6.9,0,10.4,0c0.2,0,0.4,0,0.7,0
	c0-0.4,0-0.6,0-0.9c0-7,0-14,0-21c0-1.6,1-2.3,2.5-1.7c1.8,0.7,3.5,1.3,5.3,2c0.3,0.1,0.6,0.1,0.9,0c1.7-0.6,3.4-1.3,5.1-1.9
	c0.7-0.3,1.3-0.3,1.9,0c1.7,0.7,3.4,1.3,5,1.9c0.4,0.2,0.7,0.2,1.1,0c1.8-0.7,3.6-1.4,5.3-2c0.9-0.3,1.8,0,2.1,0.8
	c0.1,0.4,0.2,0.8,0.2,1.2c0,7,0,14,0,21c0,0.2,0,0.5,0,0.7c0.3,0,0.5,0,0.7,0c3.4,0,6.9,0,10.3,0c1,0,1.7,0.3,2.1,1.3
	c0,7.6,0,15.3,0,22.9c-0.4,1-1.1,1.3-2.1,1.3c-1.1,0-2.3,0-3.4,0c-0.4,0-0.7,0-1.1,0c0,1.5,0,3,0,4.5C53.5,58.9,53.1,59.6,52.1,60z
	 M7.4,50.1c16.5,0,32.9,0,49.3,0c0-6.3,0-12.6,0-18.9c-1.1,0-2.2,0-3.3,0c0,1.6,0,3.1,0,4.6c0,1.3-0.6,1.9-1.9,1.9c-13,0-26,0-39,0
	c-1.2,0-1.9-0.7-1.9-1.9c0-1.4,0-2.7,0-4.1c0-0.2,0-0.4,0-0.6c-1.1,0-2.2,0-3.2,0C7.4,37.6,7.4,43.8,7.4,50.1z M20.6,8.1
	c0,0.2,0,0.4,0,0.5c0,8.4,0,16.9,0,25.3c0,0.5,0.2,0.6,0.6,0.6c7.3,0,14.5,0,21.8,0c0.2,0,0.4,0,0.6,0c0-8.8,0-17.6,0-26.4
	c-1.4,0.5-2.7,1-4.1,1.5c-0.6,0.2-1.1,0.2-1.7,0c-1.8-0.7-3.5-1.3-5.3-2c-0.2-0.1-0.6-0.1-0.8,0c-1.8,0.6-3.5,1.3-5.3,2
	c-0.6,0.2-1.2,0.2-1.8,0C23.3,9.1,21.9,8.6,20.6,8.1z M14,56.7c12.1,0,24.1,0,36.1,0c0-1.1,0-2.2,0-3.2c-12.1,0-24.1,0-36.1,0
	C14,54.6,14,55.6,14,56.7z M17.2,31.2c-1.1,0-2.2,0-3.2,0c0,1.1,0,2.2,0,3.2c1.1,0,2.2,0,3.2,0C17.2,33.4,17.2,32.3,17.2,31.2z
	 M50.1,31.2c-1,0-2,0-3,0c-0.1,0-0.3,0.2-0.3,0.3c0,0.9,0,1.7,0,2.6c0,0.1,0.1,0.3,0.2,0.3c1,0,2,0,3,0
	C50.1,33.4,50.1,32.3,50.1,31.2z"/>
<path class="st0" d="M16.1,42.3c1.2,0,2.4,0,3.5,0c1,0,1.7,0.7,1.8,1.6c0,0.9-0.7,1.6-1.7,1.7c-2.4,0-4.8,0-7.2,0
	c-1,0-1.7-0.7-1.7-1.6c0-0.9,0.7-1.6,1.7-1.6C13.6,42.3,14.8,42.3,16.1,42.3z"/>
<path class="st0" d="M27.9,44c0,0.9-0.7,1.6-1.6,1.6c-0.9,0-1.6-0.8-1.6-1.6c0-0.9,0.8-1.6,1.7-1.6C27.2,42.3,27.9,43.1,27.9,44z"/>
<path class="st0" d="M32.9,42.3c0.9,0,1.6,0.7,1.6,1.6c0,0.9-0.7,1.6-1.6,1.7c-0.9,0-1.6-0.7-1.7-1.6C31.2,43.1,31.9,42.3,32.9,42.3
	z"/>
<path class="st0" d="M32.1,27.1c2.2,0,4.4,0,6.5,0c0.7,0,1.2,0.3,1.5,0.9c0.3,0.6,0.3,1.1-0.1,1.7c-0.3,0.5-0.8,0.7-1.4,0.7
	c-4.4,0-8.7,0-13.1,0c-1,0-1.7-0.7-1.6-1.7c0-0.9,0.7-1.6,1.7-1.6C27.7,27.1,29.9,27.1,32.1,27.1z"/>
<path class="st0" d="M32.1,17.2c-2.1,0-4.3,0-6.4,0c-1,0-1.8-0.7-1.8-1.6c0-1,0.7-1.7,1.8-1.7c1.3,0,2.6,0,3.9,0c3,0,6,0,8.9,0
	c1,0,1.7,0.6,1.8,1.4c0.1,1-0.6,1.8-1.6,1.8c-1.6,0-3.1,0-4.7,0C33.3,17.2,32.7,17.2,32.1,17.2z"/>
<path class="st0" d="M32.1,20.6c2.2,0,4.4,0,6.6,0c0.9,0,1.6,0.7,1.6,1.5c0,0.9-0.5,1.6-1.4,1.7c-0.2,0-0.4,0-0.7,0
	c-2.7,0-5.5,0-8.2,0c-1.4,0-2.8,0-4.1,0c-0.4,0-0.7-0.1-1.1-0.2c-0.7-0.3-1-1.1-0.8-1.8c0.1-0.7,0.7-1.2,1.5-1.3c1.2,0,2.3,0,3.5,0
	C29.9,20.5,31,20.5,32.1,20.6C32.1,20.6,32.1,20.6,32.1,20.6z"/>
</svg>
