<?xml version="1.0" encoding="utf-8"?>
<!-- Generator: Adobe Illustrator 25.0.0, SVG Export Plug-In . SVG Version: 6.00 Build 0)  -->
<svg version="1.1" id="Layer_1" xmlns="http://www.w3.org/2000/svg" xmlns:xlink="http://www.w3.org/1999/xlink" x="0px" y="0px"
	 viewBox="0 0 64 64" style="enable-background:new 0 0 64 64;" xml:space="preserve">
<style type="text/css">
	.st0{fill:#FFFFFF;}
</style>
<path class="st0" d="M17.7,18.3c5,0,10,0,15.1,0c0,1.3,0,2.6,0,3.9c-4.6,0-9.2,0-13.9,0c0.3,1.2,0.6,2.3,0.9,3.4
	c1.1,4.1,2.2,8.3,3.3,12.4c0.1,0.5,0.3,0.6,0.7,0.6c8.7,0,17.3,0,26,0c0.4,0,0.7-0.1,0.8-0.5c1.3-5.1,2.6-10.3,3.9-15.4
	c0-0.1,0-0.2,0.1-0.4c-4.6,0-9.2,0-13.9,0c0-1.3,0-2.6,0-3.9c0.2,0,0.4,0,0.6,0c5.2,0,10.4,0,15.6,0c1.7,0,2.6,1.1,2.2,2.8
	c-1.7,6.5-3.3,13-5,19.5c-0.4,1.5-0.9,1.9-2.5,1.9c-8.8,0-17.6,0-26.5,0c-0.3,0-0.5,0-0.9,0c0.3,1.1,0.6,2.1,0.9,3.1
	c0,0.1,0.3,0.2,0.4,0.2c2.7,0.2,4.6,1.6,5.6,4.1c0.1,0.2,0.4,0.4,0.6,0.4c3.2,0,6.5,0,9.7,0c0.3,0,0.5-0.1,0.6-0.4
	c1.2-3.1,4.2-4.8,7.4-4.2c3.1,0.5,5.3,3.2,5.4,6.4c0.1,3.2-2,6-5.2,6.7c-3.2,0.7-6.4-1-7.6-4c-0.2-0.4-0.3-0.5-0.7-0.5
	c-3.2,0-6.4,0-9.5,0c-0.4,0-0.6,0.1-0.7,0.5c-1,2.7-3.5,4.3-6.3,4.3c-2.8-0.1-5.3-1.9-6.2-4.5c-0.9-2.6-0.1-5.4,2.2-7.2
	c0.5-0.4,0.5-0.7,0.4-1.2c-2.9-10.6-5.8-21.3-8.7-31.9c-0.1-0.5-0.4-0.7-0.9-0.7c-1.9,0-3.9,0-5.8,0c-1.5,0-2.4-1.2-1.9-2.7
	c0.2-0.7,0.7-1.1,1.4-1.2c0.3-0.1,0.5-0.1,0.8-0.1c2.4,0,4.8,0,7.2,0c1.5,0,2.1,0.4,2.5,1.9c0.6,2.1,1.1,4.2,1.7,6.2
	C17.6,17.9,17.7,18.1,17.7,18.3z M24.8,55.1c1.5,0,2.8-1.2,2.8-2.7c0-1.5-1.3-2.8-2.8-2.8c-1.5,0-2.8,1.2-2.8,2.8
	C22,53.9,23.2,55.1,24.8,55.1z M48.1,49.6c-1.5,0-2.8,1.2-2.8,2.7c0,1.5,1.2,2.8,2.7,2.8c1.5,0,2.8-1.3,2.8-2.8
	C50.8,50.8,49.6,49.6,48.1,49.6z"/>
<path class="st0" d="M34.7,25.2c0-0.2,0-0.4,0-0.7c0-6.2,0-12.3,0-18.5c0-1.6,1.2-2.5,2.6-2.1c0.7,0.2,1.1,0.7,1.2,1.4
	c0.1,0.3,0.1,0.7,0.1,1c0,6,0,12.1,0,18.1c0,0.2,0,0.5,0,0.7c0.1,0,0.1,0.1,0.2,0.1c0.3-0.3,0.6-0.7,0.9-1c0.9-0.9,2.1-0.9,2.9-0.1
	c0.8,0.8,0.7,1.9-0.1,2.8c-1.4,1.5-2.9,2.9-4.3,4.4c-0.9,0.9-2,0.9-2.9,0c-1.5-1.5-3-3-4.5-4.5c-0.6-0.6-0.7-1.5-0.3-2.3
	c0.4-0.7,1.2-1.2,2-1c0.4,0.1,0.7,0.3,1,0.5c0.4,0.3,0.7,0.8,1.1,1.1C34.5,25.3,34.6,25.2,34.7,25.2z"/>
</svg>
