<?xml version="1.0" encoding="utf-8"?>
<!-- Generator: Adobe Illustrator 25.0.0, SVG Export Plug-In . SVG Version: 6.00 Build 0)  -->
<svg version="1.1" id="Layer_1" xmlns="http://www.w3.org/2000/svg" xmlns:xlink="http://www.w3.org/1999/xlink" x="0px" y="0px"
	 viewBox="0 0 64 64" style="enable-background:new 0 0 64 64;" xml:space="preserve">
<style type="text/css">
	.st0{fill:#FFFFFF;}
</style>
<path class="st0" d="M59.9,52.3c-0.5,0-1-0.1-1.6-0.1c0-1.6,0-3.1,0-4.7c-4.9,0-9.8,0-14.7,0c0,1.6,0,3.1,0,4.7c-0.5,0-1,0-1.6,0
	c0-4.5,0-9,0-13.6c6,0,11.9,0,17.9,0C59.9,43.2,59.9,47.7,59.9,52.3z M43.6,40.3c0,1.9,0,3.7,0,5.6c4.9,0,9.8,0,14.6,0
	c0-1.9,0-3.7,0-5.6C53.4,40.3,48.5,40.3,43.6,40.3z"/>
<path class="st0" d="M59.9,37c-0.5,0-1,0-1.6,0c0-6,0-11.9,0-18c-0.8,0-1.5,0-2.2,0.2c-0.7,0.1-1.1,0.8-1.1,1.6c0,0.8,0,1.6,0,2.5
	c-0.5,0-1,0-1.6,0c0-1-0.1-2.1,0-3.1c0.2-1.6,1.6-2.6,3.3-2.7c1,0,2.1,0,3.1,0C59.9,24,59.9,30.5,59.9,37z"/>
<path class="st0" d="M31.5,23.3c0,0.5,0,1,0,1.6c-5.1,0-10.2,0-15.4,0c0,1.1,0,2.1,0,3.2c10.8,0,21.6,0,32.4,0c0-1,0-2.1,0-3.2
	c-5.1,0-10.2,0-15.4,0c0-0.6,0-1.1,0-1.6c5.7,0,11.3,0,17,0c0,2.1,0,4.2,0,6.4c-0.2,0-0.4,0-0.7,0c-4,0-8,0-12.1,0
	c-1,0-1.6,0.4-1.8,1.2c0,0.2-0.1,0.4-0.1,0.6c0,5.8,0,11.5,0,17.3c0,1.1,0.6,1.8,1.8,1.8c1,0,2,0,3,0c0,0.5,0,1,0,1.6
	c-5.4,0-10.7,0-16.1,0c0-0.5,0-1,0-1.6c1,0,1.9,0,2.8,0c1.4,0,2-0.6,2-2c0-5.7,0-11.3,0-17c0-1.3-0.6-1.9-1.9-1.9c-4,0-8,0-11.9,0
	c-0.2,0-0.5,0-0.7,0c0-2.2,0-4.3,0-6.4C20.2,23.3,25.8,23.3,31.5,23.3z M30.5,29.8c0.1,0.8,0.2,1.4,0.2,2.1c0,5.3,0,10.6,0,15.9
	c0,0.9,0.1,1.9-0.4,2.8c1.4,0,2.7,0,3.9,0c-0.1-0.7-0.2-1.4-0.2-2c0-5.3,0-10.7,0-16c0-0.9,0.1-1.8,0.2-2.8
	C33,29.8,31.7,29.8,30.5,29.8z"/>
<path class="st0" d="M40.7,20c-0.5-3.2-2.1-5.6-5.1-6.9c-3.7-1.5-6.9-0.7-9.7,2.1c-0.4-0.3-0.8-0.7-1.2-1c1.8-2,4-3.1,6.7-3.4
	c0-0.5,0-1,0-1.6c-0.5,0-1,0-1.6,0c0-0.6,0-1.1,0-1.6c1.6,0,3.2,0,4.8,0c0,0.5,0,1,0,1.6c-0.5,0-1,0-1.6,0c0,0.6,0,1.1,0,1.6
	c1,0.3,1.9,0.4,2.8,0.8c3.6,1.5,5.7,4.2,6.3,8c0.1,0.4,0.2,0.5,0.6,0.5c0.6,0,1.2,0,1.8,0c0,0,0.1,0,0.1,0.1c0,0.5,0,1,0,1.5
	c-8.3,0-16.6,0-24.9,0c0-0.2,0-0.3,0-0.5c0-0.3,0-0.7,0-1.1c0.6,0,1.2,0,1.8,0c0.5,0,0.7-0.1,0.7-0.6c0.1-1.3,0.7-2.9,1.4-3.8
	c0.4,0.3,0.9,0.5,1.3,0.8c-0.6,1.1-1.1,2.3-1.2,3.6C29.5,20,35.1,20,40.7,20z"/>
<path class="st0" d="M6.4,47.5c0,1.6,0,3.1,0,4.7c-0.5,0-1,0-1.6,0c0-4.5,0-9,0-13.5c6,0,11.9,0,17.9,0c0,4.5,0,9,0,13.5
	c-0.5,0-1,0-1.6,0c0-1.5,0-3.1,0-4.7C16.2,47.5,11.4,47.5,6.4,47.5z M21.1,40.3c-4.9,0-9.8,0-14.7,0c0,1.9,0,3.7,0,5.6
	c4.9,0,9.8,0,14.7,0C21.1,44,21.1,42.1,21.1,40.3z"/>
<path class="st0" d="M4.8,17.5c1.2,0,2.5-0.1,3.7,0c1.5,0.1,2.6,1.4,2.7,2.8c0.1,0.9,0,1.9,0,2.9c-0.5,0-1,0-1.6,0
	c0-0.8,0-1.5,0-2.3c0-1.2-0.6-1.9-1.9-1.9c-0.4,0-0.9,0-1.3,0c0,6,0,11.9,0,17.9c-0.6,0-1.1,0-1.6,0C4.8,30.5,4.8,24,4.8,17.5z"/>
<path class="st0" d="M9.6,24.9c0.6,0,1.1,0,1.6,0c0,2.9,0,5.9,0,8.9c0.2,0,0.4,0,0.6,0c2.5,0,5.1,0,7.6,0c1.8,0,3.2,1.4,3.2,3.2
	c-0.5,0-1,0-1.5,0c-0.5-1.3-0.8-1.6-2.2-1.6c-3.4,0-6.9,0-10.3,0c-0.2,0-0.4,0-0.6,0c0-0.5,0-1.1,0-1.6c0.5,0,1,0,1.6,0
	C9.6,30.8,9.6,27.9,9.6,24.9z"/>
<path class="st0" d="M53.5,33.8c0-3,0-5.9,0-8.9c0.5,0,1,0,1.6,0c0,2.9,0,5.9,0,8.8c0.6,0,1.1,0,1.6,0c0,0.5,0,1.1,0,1.6
	c-0.2,0-0.4,0-0.6,0c-3.4,0-6.9,0-10.3,0c-1.5,0-1.8,0.2-2.3,1.6c-0.5,0-1,0-1.5,0c-0.1-1.7,1.4-3.2,3.1-3.2c2.5,0,5.1,0,7.6,0
	C53,33.8,53.2,33.8,53.5,33.8z"/>
<path class="st0" d="M33.2,14.1c2.1,0.3,3.7,1.4,4.8,3.1c-0.5,0.3-0.9,0.6-1.4,0.9c-0.9-1.3-2.1-2.1-3.7-2.4
	C33.1,15.1,33.2,14.6,33.2,14.1z"/>
<path class="st0" d="M31.4,14c0.1,0.6,0.2,1.1,0.2,1.6c-0.5,0.1-0.9,0.3-1.5,0.4c-0.2-0.5-0.4-0.9-0.7-1.5
	C30.1,14.4,30.7,14.2,31.4,14z"/>
</svg>
