<?xml version="1.0" encoding="utf-8"?>
<!-- Generator: Adobe Illustrator 25.0.0, SVG Export Plug-In . SVG Version: 6.00 Build 0)  -->
<svg version="1.1" id="Layer_1" xmlns="http://www.w3.org/2000/svg" xmlns:xlink="http://www.w3.org/1999/xlink" x="0px" y="0px"
	 viewBox="0 0 64 64" style="enable-background:new 0 0 64 64;" xml:space="preserve">
<style type="text/css">
	.st0{fill:#FFFFFF;}
</style>
<path class="st0" d="M34.2,1c0.8,0.2,1.7,0.3,2.5,0.5c7,1.6,12.4,7.9,12.9,15.1c0.2,2.7,0.1,5.3,0.1,8c0,0.2-0.1,0.4-0.1,0.7
	c-0.1,0.4-0.2,0.6-0.7,0.6c-0.4,0-0.5-0.3-0.5-0.7c0-0.3,0-0.6,0-1c0-1.6,0-3.1,0-4.7c0-1.8-1.3-3.1-3.1-3.2c-4-0.1-7.4-1.4-10.4-4
	c-1.4-1.2-2.9-1.2-4.3,0c-3,2.6-6.5,3.9-10.5,4c-1.7,0-3,1.3-3,3.1c0,1.6,0,3.1,0,4.7c0,0.2,0,0.4,0,0.5c-0.1,0.2-0.4,0.4-0.6,0.4
	c-0.2,0-0.4-0.2-0.5-0.4c-0.1-0.1,0-0.2,0-0.3c0-2.6-0.1-5.2,0.1-7.8C16.4,9.9,21.1,4,27.3,2c1.4-0.4,2.8-0.7,4.2-1
	C32.4,1,33.3,1,34.2,1z"/>
<path class="st0" d="M46.3,24.2c0,1.8,0.2,3.6,0,5.4c-0.6,5.7-5.2,10.6-10.8,11.7c-7.7,1.4-14.8-3.5-16.1-11.2
	c-0.1-0.7-0.2-1.5-0.2-2.2c0-2.7,0-5.4,0-8.1c0-1,0.3-1.3,1.3-1.3c4.3-0.1,8.1-1.5,11.4-4.3c0.8-0.7,1.1-0.7,1.9,0
	c3.3,2.8,7.1,4.2,11.4,4.3c1,0,1.3,0.3,1.3,1.3c0,1.5,0,3,0,4.5C46.4,24.2,46.3,24.2,46.3,24.2z"/>
<path class="st0" d="M32.8,62.3c-3.6,0-7.3,0-10.9,0c-1,0-1.4-0.3-1.4-1.4c0-4.7,0-9.3,0-14c0-1,1.2-1.8,2.1-1.6
	c0.5,0.1,0.7,0.6,0.8,1c0.8,2.8,2.6,4.9,5.2,6.1c5.4,2.5,11.6-0.2,13.4-5.9c0.1-0.4,0.2-0.7,0.5-1c0.4-0.5,0.9-0.3,1.4-0.1
	c0.5,0.2,0.9,0.4,0.9,0.9c0,0.2,0,0.4,0,0.5c0,4.6,0,9.2,0,13.8c0,1.2-0.3,1.5-1.5,1.5C39.9,62.3,36.3,62.3,32.8,62.3z"/>
<path class="st0" d="M32.8,51.4c-3.9,0-7.4-3.1-7.7-7.1c-0.1-1.2,1.2-2.2,2.3-1.8c3.6,1.3,7.1,1.3,10.7,0c0.9-0.3,1.1-0.2,1.8,0.5
	c0.6,0.6,0.7,1.2,0.5,2C39.7,48.7,36.5,51.4,32.8,51.4z"/>
<path class="st0" d="M47.1,54.5c0-2.1,0-4.3,0-6.4c0-1.1,0.5-1.4,1.4-1c3.1,1.4,4.8,3.8,4.9,7.2c0.1,2.2,0,4.5,0,6.8
	c0,0.8-0.4,1.2-1.2,1.2c-1.3,0-2.6,0-3.9,0c-0.9,0-1.3-0.4-1.3-1.3C47.1,58.8,47.1,56.7,47.1,54.5z"/>
<path class="st0" d="M18.5,54.5c0,2.1,0,4.3,0,6.4c0,1.1-0.3,1.4-1.4,1.4c-1.3,0-2.6,0-3.8,0c-0.7,0-1.2-0.4-1.2-1
	c0-2.6-0.1-5.2,0.1-7.8c0.3-3.1,2.1-5.2,5-6.4c0.8-0.3,1.2,0,1.3,0.9C18.5,50.1,18.5,52.3,18.5,54.5z"/>
<path class="st0" d="M18.6,42.7c-1.1-0.2-2.1-0.5-3.2-0.7c-0.5-0.1-0.8-0.5-0.8-1c-0.5-2.8,0.1-5.3,1.6-7.6c0.6-0.8,1.5-0.7,1.9,0.2
	c1,2.5,2.5,4.6,4.5,6.3c0.8,0.7,0.6,1.4-0.3,1.9c-1.2,0.6-2.4,0.8-3.7,0.8C18.7,42.6,18.7,42.7,18.6,42.7z"/>
<path class="st0" d="M46.8,42.7c-1.3-0.1-2.6-0.4-3.7-1c-0.9-0.4-1-1.2-0.2-1.9c2-1.7,3.5-3.8,4.5-6.2c0.4-1,1.3-1.1,1.9-0.2
	c1.6,2.3,2,4.8,1.6,7.5c-0.1,0.6-0.4,0.9-0.9,1.1C48.9,42.3,47.9,42.5,46.8,42.7z"/>
</svg>
